<svg width="37" height="37" viewBox="0 0 37 37" fill="none" xmlns="http://www.w3.org/2000/svg">
<path d="M31.2188 16.8438H8.09375C7.65448 16.8438 7.23321 17.0182 6.9226 17.3289C6.612 17.6395 6.4375 18.0607 6.4375 18.5C6.4375 18.9393 6.612 19.3605 6.9226 19.6711C7.23321 19.9818 7.65449 20.1562 8.09375 20.1562H31.2188C31.658 20.1562 32.0793 19.9818 32.3899 19.6711C32.7005 19.3605 32.875 18.9393 32.875 18.5C32.875 18.0607 32.7005 17.6395 32.3899 17.3289C32.0793 17.0182 31.658 16.8438 31.2188 16.8438Z" fill="white" stroke="white"/>
<path d="M18.516 27.7341L18.516 27.734L9.27974 18.5L18.516 9.26597L18.516 9.26593C18.8269 8.95505 19.0016 8.5334 19.0016 8.09375C19.0016 7.6541 18.8269 7.23245 18.516 6.92157C18.2052 6.61069 17.7835 6.43604 17.3439 6.43604C16.9042 6.43604 16.4826 6.61069 16.1717 6.92157L5.76588 17.3274C5.61164 17.4812 5.48927 17.664 5.40577 17.8652C5.32228 18.0664 5.2793 18.2821 5.2793 18.5C5.2793 18.7179 5.32228 18.9336 5.40577 19.1348C5.48927 19.336 5.61164 19.5188 5.76588 19.6726L16.1717 30.0784C16.4826 30.3893 16.9042 30.564 17.3439 30.564C17.7835 30.564 18.2052 30.3893 18.516 30.0784C18.8269 29.7675 19.0016 29.3459 19.0016 28.9062C19.0016 28.4666 18.8269 28.045 18.516 27.7341Z" fill="white" stroke="white"/>
</svg>
