<svg width="35" height="35" viewBox="0 0 35 35" fill="none" xmlns="http://www.w3.org/2000/svg">
<path d="M2.9165 8.75C2.9165 7.97645 3.22379 7.23459 3.77078 6.68761C4.31776 6.14063 5.05962 5.83333 5.83317 5.83333H18.9582C19.7317 5.83333 20.4736 6.14063 21.0206 6.68761C21.5675 7.23459 21.8748 7.97645 21.8748 8.75V11.6667C21.8748 12.0534 21.7212 12.4244 21.4477 12.6979C21.1742 12.9714 20.8033 13.125 20.4165 13.125C20.0297 13.125 19.6588 12.9714 19.3853 12.6979C19.1118 12.4244 18.9582 12.0534 18.9582 11.6667V8.75H5.83317V26.25H18.9582V23.3333C18.9582 22.9466 19.1118 22.5756 19.3853 22.3021C19.6588 22.0286 20.0297 21.875 20.4165 21.875C20.8033 21.875 21.1742 22.0286 21.4477 22.3021C21.7212 22.5756 21.8748 22.9466 21.8748 23.3333V26.25C21.8748 27.0235 21.5675 27.7654 21.0206 28.3124C20.4736 28.8594 19.7317 29.1667 18.9582 29.1667H5.83317C5.05962 29.1667 4.31776 28.8594 3.77078 28.3124C3.22379 27.7654 2.9165 27.0235 2.9165 26.25V8.75ZM25.2188 12.094C25.4923 11.8206 25.8631 11.667 26.2498 11.667C26.6365 11.667 27.0074 11.8206 27.2809 12.094L31.6559 16.469C31.9293 16.7424 32.0829 17.1133 32.0829 17.5C32.0829 17.8867 31.9293 18.2576 31.6559 18.531L27.2809 22.906C27.0058 23.1717 26.6375 23.3187 26.2551 23.3154C25.8727 23.312 25.5069 23.1587 25.2366 22.8883C24.9662 22.6179 24.8128 22.2521 24.8095 21.8698C24.8062 21.4874 24.9531 21.119 25.2188 20.844L27.1044 18.9583H13.1248C12.7381 18.9583 12.3671 18.8047 12.0936 18.5312C11.8201 18.2577 11.6665 17.8868 11.6665 17.5C11.6665 17.1132 11.8201 16.7423 12.0936 16.4688C12.3671 16.1953 12.7381 16.0417 13.1248 16.0417H27.1044L25.2188 14.156C24.9454 13.8826 24.7918 13.5117 24.7918 13.125C24.7918 12.7383 24.9454 12.3674 25.2188 12.094Z" fill="white"/>
</svg>
